<svg width="108" height="108" viewBox="0 0 108 108" xmlns="http://www.w3.org/2000/svg">
  <defs>
    <linearGradient id="adaptiveGradient" x1="0%" y1="0%" x2="100%" y2="100%">
      <stop offset="0%" style="stop-color:#00D4FF;stop-opacity:1" />
      <stop offset="50%" style="stop-color:#00FF88;stop-opacity:1" />
      <stop offset="100%" style="stop-color:#FFD700;stop-opacity:1" />
    </linearGradient>
  </defs>
  
  <!-- Battery main body -->
  <rect x="15" y="30" width="70" height="35" rx="4" fill="url(#adaptiveGradient)" stroke="#fff" stroke-width="1"/>
  
  <!-- Battery terminal -->
  <rect x="85" y="40" width="8" height="15" rx="2" fill="url(#adaptiveGradient)"/>
  
  <!-- Battery charge level -->
  <rect x="18" y="33" width="18" height="29" rx="2" fill="#00FF88" opacity="0.9"/>
  <rect x="38" y="33" width="18" height="29" rx="2" fill="#00FF88" opacity="0.7"/>
  <rect x="58" y="33" width="18" height="29" rx="2" fill="#FFD700" opacity="0.5"/>
  
  <!-- Lightning bolt -->
  <path d="M45 8 L55 8 L50 18 L53 18 L47 28 L42 18 L45 18 Z" fill="#FFD700" stroke="#fff" stroke-width="0.5"/>
  
  <!-- Car icon -->
  <path d="M20 75 L30 70 L35 68 L73 68 L78 70 L88 75 L88 85 L83 85 L83 90 L78 90 L78 85 L30 85 L30 90 L25 90 L25 85 L20 85 Z" fill="#666"/>
  
  <!-- Wheels -->
  <circle cx="32" cy="88" r="6" fill="#444"/>
  <circle cx="76" cy="88" r="6" fill="#444"/>
</svg>
